<svg width="46" height="46" viewBox="0 0 46 46" fill="none" xmlns="http://www.w3.org/2000/svg">
<path fill-rule="evenodd" clip-rule="evenodd" d="M30.6667 19.9333C30.6667 21.3429 30.3891 22.7386 29.8497 24.0408C29.3103 25.343 28.5197 26.5263 27.523 27.5229C26.5263 28.5196 25.3431 29.3102 24.0408 29.8496C22.7386 30.389 21.3429 30.6667 19.9334 30.6667C18.5239 30.6667 17.1281 30.389 15.8259 29.8496C14.5237 29.3102 13.3404 28.5196 12.3438 27.5229C11.3471 26.5263 10.5565 25.343 10.0171 24.0408C9.47767 22.7386 9.20004 21.3429 9.20004 19.9333C9.20004 17.0867 10.3309 14.3566 12.3438 12.3437C14.3567 10.3308 17.0867 9.2 19.9334 9.2C22.78 9.2 25.5101 10.3308 27.523 12.3437C29.5359 14.3566 30.6667 17.0867 30.6667 19.9333ZM28.5476 30.7157C25.792 32.9172 22.298 33.9801 18.7832 33.6859C15.2684 33.3918 11.9996 31.763 9.6482 29.1341C7.29679 26.5052 6.04123 23.0757 6.13938 19.55C6.23753 16.0243 7.68194 12.6699 10.176 10.1759C12.67 7.6819 16.0243 6.23749 19.55 6.13934C23.0757 6.04119 26.5052 7.29675 29.1341 9.64816C31.763 11.9996 33.3918 15.2683 33.686 18.7831C33.9801 22.2979 32.9173 25.7919 30.7158 28.5476L39.419 37.2477C39.5615 37.3903 39.6746 37.5595 39.7518 37.7458C39.8289 37.9321 39.8686 38.1317 39.8686 38.3333C39.8686 38.5349 39.8289 38.7346 39.7518 38.9209C39.6746 39.1071 39.5615 39.2764 39.419 39.4189C39.2764 39.5615 39.1072 39.6746 38.9209 39.7517C38.7346 39.8289 38.535 39.8686 38.3334 39.8686C38.1318 39.8686 37.9321 39.8289 37.7459 39.7517C37.5596 39.6746 37.3903 39.5615 37.2478 39.4189L28.5507 30.7157H28.5476Z" fill="white"/>
</svg>
