<svg width="52" height="59" viewBox="0 0 52 59" fill="none" xmlns="http://www.w3.org/2000/svg">
<g filter="url(#filter0_d_1_33)">
<path d="M12.75 41.9062C10.9583 41.7396 8.86458 41.6562 6.46875 41.6562H4L17.5938 3.5625C18.1979 1.85417 18.5 0.864583 18.5 0.59375C18.5 0.302083 18.4896 0.125 18.4688 0.0625L18.5 0C19.8542 0.0625 21.2917 0.09375 22.8125 0.09375C24.0625 0.09375 25.5625 0.0729167 27.3125 0.03125L27.3438 0.09375C27.3021 0.177083 27.2812 0.291667 27.2812 0.4375C27.2812 0.833333 27.5938 1.88542 28.2188 3.59375L43.5938 50.0938C43.1771 50.0729 42.6875 50.0625 42.125 50.0625C42.125 50.0625 41.5833 50.0417 40.5 50C39.9792 50 39.5104 50 39.0938 50H36L28.2188 29.1562H16.8438L12.75 41.9062ZM27.375 25.1562L22.6562 10.625L18.0625 25.1562H27.375Z" fill="black"/>
<path d="M39.75 9C41.5 9.04167 43.2812 9.0625 44.5312 9.0625L48 9L27.375 50.625H21.125L19.5 50.6875C18.9375 50.6875 18.4479 50.6979 18.0312 50.7188L39.75 9Z" fill="black"/>
<path d="M32.427 40.4291L28.6522 30.3174L33.791 20.4464L37.2079 30.7804L32.427 40.4291Z" fill="#FBFBFB"/>
</g>
<defs>
<filter id="filter0_d_1_33" x="0" y="0" width="52" height="58.7188" filterUnits="userSpaceOnUse" color-interpolation-filters="sRGB">
<feFlood flood-opacity="0" result="BackgroundImageFix"/>
<feColorMatrix in="SourceAlpha" type="matrix" values="0 0 0 0 0 0 0 0 0 0 0 0 0 0 0 0 0 0 127 0" result="hardAlpha"/>
<feOffset dy="4"/>
<feGaussianBlur stdDeviation="2"/>
<feComposite in2="hardAlpha" operator="out"/>
<feColorMatrix type="matrix" values="0 0 0 0 0 0 0 0 0 0 0 0 0 0 0 0 0 0 0.25 0"/>
<feBlend mode="normal" in2="BackgroundImageFix" result="effect1_dropShadow_1_33"/>
<feBlend mode="normal" in="SourceGraphic" in2="effect1_dropShadow_1_33" result="shape"/>
</filter>
</defs>
</svg>
