<svg width="41" height="42" viewBox="0 0 41 42" fill="none" xmlns="http://www.w3.org/2000/svg">
<path fill-rule="evenodd" clip-rule="evenodd" d="M8.54171 33.25H32.4584C32.9114 33.25 33.346 33.4344 33.6663 33.7626C33.9867 34.0907 34.1667 34.5359 34.1667 35C34.1667 35.4641 33.9867 35.9092 33.6663 36.2374C33.346 36.5656 32.9114 36.75 32.4584 36.75H8.54171C8.08863 36.75 7.65411 36.5656 7.33373 36.2374C7.01336 35.9092 6.83337 35.4641 6.83337 35C6.83337 34.5359 7.01336 34.0907 7.33373 33.7626C7.65411 33.4344 8.08863 33.25 8.54171 33.25ZM22.2084 23.0562L27.7485 17.3827L30.1641 19.8573L20.5 29.757L10.836 19.8573L13.2516 17.3827L18.7917 23.0562V3.5H22.2084V23.0562Z" fill="black"/>
</svg>
